<svg width="18" height="18" viewBox="0 0 18 18" fill="none" xmlns="http://www.w3.org/2000/svg">
<path d="M12.6 9.00001V10.2C12.6 10.8365 12.8528 11.447 13.3029 11.8971C13.753 12.3471 14.3635 12.6 15 12.6C15.6365 12.6 16.247 12.3471 16.697 11.8971C17.1471 11.447 17.4 10.8365 17.4 10.2V9.00001C17.3999 7.12045 16.7694 5.29524 15.6094 3.81635C14.4494 2.33745 12.8269 1.29033 11.0015 0.842473C9.17609 0.39462 7.25321 0.571919 5.54047 1.34601C3.82772 2.1201 2.42407 3.44625 1.55406 5.11232C0.68405 6.77839 0.397946 8.68811 0.741516 10.536C1.08509 12.3839 2.03848 14.0632 3.44918 15.3052C4.85989 16.5472 6.64639 17.2802 8.52291 17.387C10.3994 17.4937 12.2575 16.968 13.8 15.894M12.6 9.00001C12.6 9.95479 12.2207 10.8705 11.5456 11.5456C10.8704 12.2207 9.95477 12.6 8.99999 12.6C8.04521 12.6 7.12953 12.2207 6.4544 11.5456C5.77927 10.8705 5.39999 9.95479 5.39999 9.00001C5.39999 8.04523 5.77927 7.12955 6.4544 6.45442C7.12953 5.77929 8.04521 5.40001 8.99999 5.40001C9.95477 5.40001 10.8704 5.77929 11.5456 6.45442C12.2207 7.12955 12.6 8.04523 12.6 9.00001V9.00001Z" stroke="black" stroke-width="1.2"/>
</svg>
