<svg width="8" height="16" viewBox="0 0 8 16" fill="none" xmlns="http://www.w3.org/2000/svg">
<path d="M6.4 2.6C6.24087 2.6 6.08826 2.53679 5.97574 2.42426C5.86321 2.31174 5.8 2.15913 5.8 2C5.8 1.84087 5.86321 1.68826 5.97574 1.57574C6.08826 1.46321 6.24087 1.4 6.4 1.4C6.55913 1.4 6.71174 1.46321 6.82426 1.57574C6.93679 1.68826 7 1.84087 7 2C7 2.15913 6.93679 2.31174 6.82426 2.42426C6.71174 2.53679 6.55913 2.6 6.4 2.6ZM6.4 8.6C6.24087 8.6 6.08826 8.53679 5.97574 8.42426C5.86321 8.31174 5.8 8.15913 5.8 8C5.8 7.84087 5.86321 7.68826 5.97574 7.57574C6.08826 7.46321 6.24087 7.4 6.4 7.4C6.55913 7.4 6.71174 7.46321 6.82426 7.57574C6.93679 7.68826 7 7.84087 7 8C7 8.15913 6.93679 8.31174 6.82426 8.42426C6.71174 8.53679 6.55913 8.6 6.4 8.6ZM6.4 14.6C6.24087 14.6 6.08826 14.5368 5.97574 14.4243C5.86321 14.3117 5.8 14.1591 5.8 14C5.8 13.8409 5.86321 13.6883 5.97574 13.5757C6.08826 13.4632 6.24087 13.4 6.4 13.4C6.55913 13.4 6.71174 13.4632 6.82426 13.5757C6.93679 13.6883 7 13.8409 7 14C7 14.1591 6.93679 14.3117 6.82426 14.4243C6.71174 14.5368 6.55913 14.6 6.4 14.6ZM1.6 2.6C1.44087 2.6 1.28826 2.53679 1.17574 2.42426C1.06321 2.31174 1 2.15913 1 2C1 1.84087 1.06321 1.68826 1.17574 1.57574C1.28826 1.46321 1.44087 1.4 1.6 1.4C1.75913 1.4 1.91174 1.46321 2.02426 1.57574C2.13679 1.68826 2.2 1.84087 2.2 2C2.2 2.15913 2.13679 2.31174 2.02426 2.42426C1.91174 2.53679 1.75913 2.6 1.6 2.6ZM1.6 8.6C1.44087 8.6 1.28826 8.53679 1.17574 8.42426C1.06321 8.31174 1 8.15913 1 8C1 7.84087 1.06321 7.68826 1.17574 7.57574C1.28826 7.46321 1.44087 7.4 1.6 7.4C1.75913 7.4 1.91174 7.46321 2.02426 7.57574C2.13679 7.68826 2.2 7.84087 2.2 8C2.2 8.15913 2.13679 8.31174 2.02426 8.42426C1.91174 8.53679 1.75913 8.6 1.6 8.6ZM1.6 14.6C1.44087 14.6 1.28826 14.5368 1.17574 14.4243C1.06321 14.3117 1 14.1591 1 14C1 13.8409 1.06321 13.6883 1.17574 13.5757C1.28826 13.4632 1.44087 13.4 1.6 13.4C1.75913 13.4 1.91174 13.4632 2.02426 13.5757C2.13679 13.6883 2.2 13.8409 2.2 14C2.2 14.1591 2.13679 14.3117 2.02426 14.4243C1.91174 14.5368 1.75913 14.6 1.6 14.6Z" stroke="black" stroke-width="1.2"/>
</svg>
