<svg width="18" height="18" viewBox="0 0 18 18" fill="none" xmlns="http://www.w3.org/2000/svg">
<path d="M12 4.20001H13.2H12ZM17.4 11.3916L13.8 7.79401L10.2 11.3916L5.40001 5.39641L0.600006 11.4L17.4 11.3916ZM1.80001 0.600006H16.2C16.5183 0.600006 16.8235 0.726434 17.0485 0.951478C17.2736 1.17652 17.4 1.48175 17.4 1.80001V16.2C17.4 16.5183 17.2736 16.8235 17.0485 17.0485C16.8235 17.2736 16.5183 17.4 16.2 17.4H1.80001C1.48175 17.4 1.17652 17.2736 0.951478 17.0485C0.726434 16.8235 0.600006 16.5183 0.600006 16.2V1.80001C0.600006 1.48175 0.726434 1.17652 0.951478 0.951478C1.17652 0.726434 1.48175 0.600006 1.80001 0.600006V0.600006Z" stroke="black"/>
</svg>
