<svg width="18" height="18" viewBox="0 0 18 18" fill="none" xmlns="http://www.w3.org/2000/svg">
<g opacity="0.6">
<path d="M5.6641 0.599976H3.0001C2.36358 0.599976 1.75313 0.852832 1.30304 1.30292C0.852954 1.75301 0.600098 2.36346 0.600098 2.99998V5.39998C0.600098 12.0276 5.9725 17.4 12.6001 17.4H15.0001C15.6366 17.4 16.2471 17.1471 16.6972 16.697C17.1472 16.2469 17.4001 15.6365 17.4001 15V13.3416C17.4 13.1188 17.3378 12.9004 17.2206 12.7109C17.1034 12.5215 16.9358 12.3684 16.7365 12.2688L13.8373 10.8192C13.6835 10.7423 13.515 10.6993 13.3432 10.6932C13.1714 10.687 13.0003 10.7179 12.8414 10.7837C12.6826 10.8494 12.5397 10.9486 12.4225 11.0744C12.3053 11.2002 12.2165 11.3497 12.1621 11.5128L11.8057 12.5844C11.6938 12.9201 11.4632 13.2034 11.1571 13.3811C10.8511 13.5587 10.4907 13.6185 10.1437 13.5492C8.73901 13.2681 7.44896 12.5774 6.43611 11.5644C5.42326 10.5513 4.73293 9.26112 4.4521 7.85638C4.38277 7.50936 4.44255 7.14897 4.62021 6.84293C4.79787 6.53689 5.08118 6.30626 5.4169 6.19438L6.7465 5.75038C7.03302 5.6548 7.27296 5.4547 7.41843 5.19C7.5639 4.9253 7.60421 4.61548 7.5313 4.32238L6.8281 1.50838C6.76309 1.24888 6.61324 1.01855 6.40235 0.853962C6.19145 0.689378 5.93161 0.599983 5.6641 0.599976V0.599976Z" stroke="black" stroke-width="1.2"/>
</g>
</svg>
