<svg width="18" height="19" viewBox="0 0 18 19" fill="none" xmlns="http://www.w3.org/2000/svg">
<path opacity="0.8" d="M7.55708 2.87233C7.602 2.37829 8.01623 2 8.51228 2H9.48773C9.98378 2 10.398 2.37829 10.4429 2.87233C10.4798 3.27794 10.7717 3.60907 11.1531 3.752C11.2511 3.78874 11.348 3.82793 11.4437 3.86947C11.821 4.03347 12.2648 4.00204 12.5809 3.73864C12.9715 3.41315 13.5458 3.43921 13.9053 3.79872L14.5938 4.48717C14.9366 4.82994 14.9614 5.37753 14.651 5.74994C14.3926 6.06012 14.3685 6.49809 14.5423 6.86256C14.6175 7.02039 14.6862 7.18194 14.748 7.34687C14.891 7.72825 15.2221 8.02018 15.6277 8.05708C16.1217 8.102 16.5 8.51622 16.5 9.01227V9.98773C16.5 10.4838 16.1217 10.898 15.6277 10.9429C15.2221 10.9798 14.891 11.2717 14.748 11.6531C14.6925 11.8012 14.6315 11.9465 14.5652 12.0889C14.404 12.4348 14.4301 12.8478 14.6744 13.141C14.9715 13.4975 14.9477 14.0218 14.6195 14.35L13.85 15.1195C13.5218 15.4477 12.9975 15.4715 12.641 15.1743C12.3478 14.9301 11.9348 14.904 11.5889 15.0652C11.4465 15.1315 11.3012 15.1925 11.1531 15.248C10.7717 15.3909 10.4798 15.7221 10.4429 16.1277C10.398 16.6217 9.98378 17 9.48773 17H8.51228C8.01623 17 7.602 16.6217 7.55708 16.1277C7.52018 15.7221 7.22825 15.3909 6.84688 15.248C6.68195 15.1862 6.5204 15.1175 6.36257 15.0423C5.9981 14.8685 5.56013 14.8926 5.24994 15.151C4.87754 15.4614 4.32994 15.4366 3.98717 15.0938L3.29872 14.4053C2.9392 14.0458 2.91315 13.4715 3.23864 13.0809C3.50204 12.7648 3.53347 12.321 3.36947 11.9436C3.32793 11.848 3.28875 11.7512 3.252 11.6531C3.10908 11.2717 2.77794 10.9798 2.37233 10.9429C1.87829 10.898 1.5 10.4838 1.5 9.98773V9.01227C1.5 8.51622 1.87829 8.102 2.37233 8.05708C2.77795 8.02018 3.10908 7.72826 3.25201 7.34688C3.2952 7.23163 3.34176 7.11801 3.39157 7.00617C3.56783 6.61037 3.53853 6.14193 3.26116 5.80908C2.92292 5.40319 2.94999 4.80634 3.32359 4.43274L3.93273 3.82359C4.30634 3.44999 4.90318 3.42291 5.30907 3.76116C5.64192 4.03854 6.11036 4.06782 6.50616 3.89157C6.61801 3.84176 6.73162 3.7952 6.84687 3.75201C7.22825 3.60908 7.52018 3.27795 7.55708 2.87233Z" stroke="black" stroke-width="0.5" stroke-linecap="round" stroke-linejoin="round"/>
<path opacity="0.8" d="M11.25 9.5C11.25 10.7427 10.2427 11.75 9 11.75C7.75732 11.75 6.75 10.7427 6.75 9.5C6.75 8.25732 7.75732 7.25 9 7.25C10.2427 7.25 11.25 8.25732 11.25 9.5Z" stroke="black" stroke-width="0.5" stroke-linecap="round" stroke-linejoin="round"/>
</svg>
